<svg width="18" height="21" viewBox="0 0 18 21" fill="none" xmlns="http://www.w3.org/2000/svg">
<path d="M1.00072 12.1219V11.9168C1.03102 11.31 1.22319 10.7223 1.55729 10.2148C2.11494 9.60598 2.49726 8.85752 2.66364 8.04888C2.66364 7.42508 2.66364 6.79191 2.71725 6.1681C2.99639 3.16395 5.93671 1.08743 8.83788 1.08743H8.91022C11.8122 1.08743 14.7517 3.16395 15.0377 6.1681C15.0913 6.79191 15.0377 7.42508 15.0819 8.04888C15.2508 8.85917 15.6327 9.60976 16.1883 10.2233C16.5259 10.726 16.7187 11.3119 16.7457 11.9168V12.1126C16.7655 12.9286 16.4875 13.7239 15.9636 14.3499C15.2683 15.0851 14.3288 15.5414 13.3211 15.6333C10.3614 15.9542 7.37565 15.9542 4.41591 15.6333C3.40969 15.5371 2.47184 15.0815 1.77431 14.3499C1.25846 13.7236 0.984024 12.9332 1.00072 12.1219V12.1219Z" stroke="#2E3E5C" stroke-width="1.27655" stroke-miterlimit="10" stroke-linecap="round" stroke-linejoin="round"/>
<path d="M6.60999 18.3285C7.0742 18.9164 7.75282 19.2959 8.49673 19.3838C9.24146 19.4726 9.99107 19.263 10.5818 18.8008C10.7632 18.6647 10.9265 18.5059 11.0677 18.3285" stroke="#2E3E5C" stroke-width="1.27655" stroke-miterlimit="10" stroke-linecap="round" stroke-linejoin="round"/>
</svg>
