<svg width="30" height="30" viewBox="0 0 30 30" fill="none" xmlns="http://www.w3.org/2000/svg">
<circle cx="15" cy="15" r="15" fill="white"/>
<path fill-rule="evenodd" clip-rule="evenodd" d="M23.6098 9.41513C23.4901 8.45859 23.2509 7.50205 22.6827 6.93411C22.1145 6.36616 21.1277 6.12703 20.1707 6.03735C19.2437 5.97757 18.197 5.97757 17.0307 6.12703C17.2998 6.2167 17.5092 6.36616 17.6886 6.51562C18.2568 7.05367 18.5259 7.95043 18.6456 8.8173C18.7353 9.47492 18.7652 10.1624 18.7353 10.9396C18.7054 12.1652 18.496 13.5701 18.0774 15.1843C17.8082 16.2006 17.5092 17.1272 17.1802 17.9343V17.9642C17.8082 18.3528 18.4362 18.6517 19.0044 18.9208C19.8118 19.2496 20.7389 19.4588 21.4566 19.2197C21.6959 19.1599 21.9052 19.0403 22.1145 18.8909L22.1444 18.861C22.4136 18.1137 22.6528 17.3066 22.892 16.4098C23.2509 15.0049 23.4901 13.7196 23.5799 12.5538C23.6995 11.388 23.6995 10.3418 23.6098 9.41513ZM18.4662 20.1762C17.8681 19.9371 17.2401 19.6382 16.5822 19.2197C15.5356 18.5621 14.4291 17.6952 13.2329 16.5294C12.4853 15.7821 11.8274 15.0647 11.2891 14.3473C10.6312 14.706 10.063 15.0647 9.55461 15.4533C8.8668 15.9914 8.2388 16.649 8.05937 17.4262C7.99956 17.6653 7.99956 17.9044 8.02947 18.1735V18.2034C8.53785 18.8012 9.10604 19.4289 9.76394 20.0567C10.8106 21.1029 11.8274 21.9398 12.7843 22.5975C13.7413 23.285 14.6384 23.7931 15.4757 24.1817C16.343 24.5703 17.3298 24.8394 18.1074 24.6301C18.855 24.391 19.5727 23.6736 20.111 22.8964C20.6493 22.1192 21.1576 21.2224 21.6361 20.1463C21.3969 20.2958 21.1576 20.4453 20.9184 20.505C20.2007 20.7442 19.2737 20.5349 18.4662 20.1762ZM10.4816 13.2113C9.79382 13.57 9.22562 13.9586 8.71724 14.3472C7.99953 14.8852 7.37153 15.5727 7.1921 16.32C7.1622 16.5592 7.13229 16.8282 7.1622 17.0972C6.47439 16.1706 5.96601 15.2738 5.54734 14.4369C5.15858 13.57 4.85953 12.5836 5.06886 11.8064C5.24829 11.0292 5.99591 10.3118 6.77343 9.74383C7.52105 9.20577 8.4182 8.69761 9.46486 8.21934C10.5414 7.71118 11.7675 7.2628 13.1731 6.87421C14.0403 6.63507 14.8776 6.45572 15.6551 6.30626H15.6851C15.9243 6.42583 16.1336 6.5454 16.3131 6.69486C16.8812 7.23291 17.1504 8.12967 17.27 8.99653C17.3298 9.62426 17.3896 10.3118 17.3597 11.0591H17.3298C16.4626 11.1786 15.5355 11.358 14.4889 11.6569C12.9039 12.1053 11.5881 12.6433 10.4816 13.2113Z" fill="#002F6C"/>
</svg>
